<svg width="70" height="24" viewBox="0 0 70 24" fill="none" xmlns="http://www.w3.org/2000/svg">
<g clip-path="url(#clip0)">
<path d="M13.5486 4.72139V9.68804H16.146V11.3026H13.5486V20.0776H11.6532V4.72139H13.5486ZM1.5795 15.462V5.79194H9.14355V15.462H1.5795ZM7.2657 7.38899H3.4749V13.8649H7.2657V7.38899ZM19.3036 20.8498V15.5322H29.1141V20.8498H19.3036ZM27.2362 17.1292H21.199V19.2528H27.2362V17.1292ZM16.8466 13.9527V12.3732H31.5886V13.9527H16.8466ZM26.8326 8.24894C26.8326 7.99154 26.7682 7.74584 26.6395 7.51184C26.5225 7.26614 26.3529 7.05554 26.1306 6.88004C25.9083 6.70454 25.6392 6.56414 25.3233 6.45884C25.0074 6.35354 24.6564 6.30089 24.2703 6.30089C23.4864 6.30089 22.8604 6.49979 22.3924 6.89759C21.9127 7.28369 21.6729 7.73414 21.6729 8.24894C21.6729 8.51804 21.7314 8.76959 21.8484 9.00359C21.9771 9.23759 22.1526 9.44234 22.3749 9.61784C22.6089 9.79334 22.8838 9.93374 23.1997 10.039C23.5273 10.1326 23.8842 10.1794 24.2703 10.1794C24.6564 10.1794 25.0074 10.1326 25.3233 10.039C25.6392 9.93374 25.9083 9.79334 26.1306 9.61784C26.3529 9.44234 26.5225 9.23759 26.6395 9.00359C26.7682 8.76959 26.8326 8.51804 26.8326 8.24894ZM28.7806 8.24894C28.7806 8.75204 28.6695 9.22004 28.4472 9.65294C28.2366 10.0858 27.9324 10.4661 27.5346 10.7937C27.1368 11.1213 26.6571 11.3787 26.0955 11.5659C25.5456 11.7414 24.9372 11.8291 24.2703 11.8291C23.5917 11.8291 22.9716 11.7414 22.41 11.5659C21.8601 11.3787 21.3862 11.1213 20.9884 10.7937C20.146 10.1268 19.7248 9.27854 19.7248 8.24894C19.7248 7.74584 19.836 7.27784 20.0583 6.84494C20.2806 6.40034 20.5965 6.02009 21.006 5.70419C21.4038 5.38829 21.8776 5.13674 22.4275 4.94954C22.9891 4.76234 23.6034 4.66874 24.2703 4.66874C24.9138 4.66874 25.5105 4.76234 26.0604 4.94954C26.622 5.13674 27.1017 5.38829 27.4995 5.70419C27.8973 6.02009 28.2073 6.40034 28.4296 6.84494C28.6636 7.27784 28.7806 7.74584 28.7806 8.24894Z" fill="#514A3E"/>
<path d="M42.6 3.99999C43.7021 3.94823 44.8005 4.16192 45.8029 4.62307C46.8053 5.08422 47.6822 5.77935 48.36 6.64999C49.6279 8.33085 50.2809 10.3957 50.21 12.5C50.2809 14.6042 49.6279 16.6691 48.36 18.35C47.6816 19.22 46.8046 19.9147 45.8024 20.3758C44.8002 20.8369 43.702 21.0509 42.6 21C41.4921 21.0546 40.3874 20.8414 39.3795 20.3783C38.3716 19.9153 37.4902 19.2161 36.81 18.34C35.557 16.6688 34.9179 14.6171 35 12.53C34.9131 10.4283 35.5561 8.3614 36.82 6.67999C37.4965 5.80101 38.3753 5.09837 39.3816 4.63178C40.3879 4.16519 41.492 3.94846 42.6 3.99999ZM42.6 6.79999C41.9706 6.78136 41.3464 6.9186 40.7828 7.19949C40.2193 7.48038 39.734 7.89621 39.37 8.40999C38.5737 9.62107 38.1784 11.0519 38.24 12.5C38.177 13.9482 38.5724 15.3795 39.37 16.59C39.734 17.1038 40.2193 17.5196 40.7828 17.8005C41.3464 18.0814 41.9706 18.2186 42.6 18.2C43.2238 18.2191 43.8425 18.0818 44.3997 17.8006C44.9569 17.5194 45.4348 17.1032 45.79 16.59C46.6231 15.4038 47.0478 13.9788 47 12.53C47.0618 11.0775 46.6551 9.6437 45.84 8.43999C45.4802 7.91946 44.9943 7.49871 44.4276 7.21714C43.861 6.93556 43.2321 6.80235 42.6 6.82999V6.79999Z" fill="#FF6363"/>
<path d="M65.81 20.74H62.71V10.74C62.71 8.17998 61.7701 6.88998 59.9001 6.88998C59.3241 6.86296 58.7514 6.9906 58.2415 7.25965C57.7315 7.52869 57.3029 7.92934 57.0001 8.41998C56.4203 9.44549 56.1397 10.613 56.19 11.79V20.79H53.8C53.6144 20.79 53.4364 20.7162 53.3051 20.585C53.1738 20.4537 53.1 20.2756 53.1 20.09V8.58998C53.1 7.81998 53.1 7.08998 53.1 6.39998C53 5.99998 53.0001 5.57998 53.0001 5.18998C52.9945 5.0939 53.0089 4.99771 53.0422 4.90743C53.0756 4.81715 53.1272 4.73471 53.1938 4.66527C53.2604 4.59582 53.3407 4.54086 53.4295 4.50382C53.5183 4.46678 53.6138 4.44845 53.71 4.44998H55.2401C55.4257 4.44998 55.6037 4.52373 55.735 4.65501C55.8663 4.78629 55.94 4.96433 55.94 5.14998V6.08998C56.4381 5.42233 57.095 4.88968 57.8512 4.54041C58.6074 4.19113 59.4388 4.03631 60.2701 4.08998C63.9701 4.08998 65.8201 6.14998 65.8201 10.27L65.81 20.74Z" fill="#FF6363"/>
<path d="M64.64 9.62H62.17V9.8H64.64V9.62Z" fill="white"/>
<path d="M64 10.63H62.17V10.81H64V10.63Z" fill="white"/>
<path d="M64 11.64H62.17V11.82H64V11.64Z" fill="white"/>
<path d="M64 12.65H62.17V12.83H64V12.65Z" fill="white"/>
<path d="M64 13.55H62.17V13.73H64V13.55Z" fill="white"/>
<path d="M64.64 14.56H62.17V14.74H64.64V14.56Z" fill="white"/>
<path d="M64 15.57H62.17V15.75H64V15.57Z" fill="white"/>
<path d="M64 16.58H62.17V16.76H64V16.58Z" fill="white"/>
<path d="M64 17.59H62.17V17.77H64V17.59Z" fill="white"/>
<path d="M64 18.48H62.17V18.66H64V18.48Z" fill="white"/>
<path d="M64.64 19.49H62.17V19.67H64.64V19.49Z" fill="white"/>
<path d="M67.34 4.20999C66.9222 4.20999 66.5139 4.08598 66.1667 3.85369C65.8195 3.62139 65.549 3.29126 65.3896 2.90513C65.2302 2.51899 65.189 2.09423 65.2713 1.68466C65.3535 1.27509 65.5554 0.899143 65.8515 0.604456C66.1476 0.30977 66.5245 0.109604 66.9345 0.0293223C67.3444 -0.0509597 67.769 -0.00774524 68.1544 0.15349C68.5398 0.314726 68.8686 0.586725 69.0992 0.935026C69.3299 1.28333 69.4519 1.69225 69.45 2.10999C69.45 2.38661 69.3953 2.66051 69.2892 2.91594C69.183 3.17138 69.0274 3.40333 68.8313 3.59846C68.6353 3.7936 68.4026 3.94807 68.1467 4.05302C67.8907 4.15796 67.6166 4.21131 67.34 4.20999ZM67.34 1.39999C67.1991 1.39801 67.0609 1.43796 66.9428 1.51476C66.8247 1.59156 66.7322 1.70174 66.6769 1.83129C66.6216 1.96083 66.6061 2.10389 66.6324 2.24227C66.6587 2.38065 66.7255 2.5081 66.8244 2.60839C66.9233 2.70869 67.0497 2.77731 67.1877 2.80553C67.3257 2.83374 67.469 2.82028 67.5993 2.76685C67.7296 2.71342 67.8411 2.62243 67.9196 2.50547C67.998 2.3885 68.0399 2.25084 68.04 2.10999C68.0413 2.01723 68.0242 1.92513 67.9896 1.83904C67.955 1.75296 67.9036 1.6746 67.8385 1.60854C67.7734 1.54248 67.6958 1.49002 67.6102 1.45422C67.5246 1.41841 67.4327 1.39998 67.34 1.39999Z" fill="#FF6363"/>
</g>
<defs>
<clipPath id="clip0">
<rect width="69.45" height="24" fill="white"/>
</clipPath>
</defs>
</svg>
